<svg width="120" height="120" viewBox="0 0 120 120" fill="none" xmlns="http://www.w3.org/2000/svg">
  <defs>
    <linearGradient id="rp_warm" x1="0" y1="0" x2="1" y2="1">
      <stop offset="0" stop-color="#f43f5e"/>
      <stop offset="0.5" stop-color="#fb7185"/>
      <stop offset="1" stop-color="#f59e0b"/>
    </linearGradient>
    <linearGradient id="rp_warmDeep" x1="0" y1="0" x2="1" y2="1">
      <stop offset="0" stop-color="#e11d48"/>
      <stop offset="1" stop-color="#ea580c"/>
    </linearGradient>
    <linearGradient id="rp_cool" x1="0" y1="0" x2="1" y2="1">
      <stop offset="0" stop-color="#3b82f6"/>
      <stop offset="1" stop-color="#8b5cf6"/>
    </linearGradient>
    <linearGradient id="rp_tile" x1="0" y1="0" x2="1" y2="1">
      <stop offset="0" stop-color="#fff7ed"/>
      <stop offset="1" stop-color="#eef4ff"/>
    </linearGradient>
  </defs>
  <rect x="0" y="0" width="120" height="120" rx="28" fill="url(#rp_tile)"/>
  <g transform="translate(12,12) scale(0.82)">
    <path d="M58 28 C60 12 71 9 71 25 C68 21 62 22 58 28 Z" fill="url(#rp_cool)"/>
    <path d="M71 23 C75 7 87 9 83 25 C79 20 75 19 71 23 Z" fill="url(#rp_warm)"/>
    <path d="M83 27 C92 17 101 24 92 35 C88 28 86 27 83 27 Z" fill="url(#rp_warm)"/>
    <circle cx="66" cy="62" r="40" fill="url(#rp_warm)"/>
    <path d="M88 66 C104 72 103 96 84 98 C92 90 90 78 82 76 Z" fill="url(#rp_warmDeep)" opacity="0.85"/>
    <path d="M30 55 C11 60 10 78 27 84 C18 77 22 64 35 63 Z" fill="url(#rp_warmDeep)"/>
    <circle cx="44" cy="68" r="8" fill="#fda4af"/>
    <circle cx="55" cy="50" r="12" fill="#ffffff"/>
    <circle cx="55" cy="50" r="6" fill="#1f2937"/>
    <circle cx="52" cy="47" r="2.2" fill="#ffffff"/>
  </g>
</svg>
